<svg width="353" height="61" viewBox="0 0 353 61" fill="none" xmlns="http://www.w3.org/2000/svg">
<path d="M91.5767 30.8182C91.5767 34.7836 90.825 38.1572 89.3217 40.9389C87.8303 43.7206 85.7943 45.8454 83.2138 47.3132C80.6451 48.7692 77.7569 49.4972 74.549 49.4972C71.3175 49.4972 68.4174 48.7633 65.8487 47.2955C63.2801 45.8277 61.25 43.7029 59.7585 40.9212C58.267 38.1394 57.5213 34.7718 57.5213 30.8182C57.5213 26.8527 58.267 23.4792 59.7585 20.6974C61.25 17.9157 63.2801 15.7969 65.8487 14.3409C68.4174 12.8731 71.3175 12.1392 74.549 12.1392C77.7569 12.1392 80.6451 12.8731 83.2138 14.3409C85.7943 15.7969 87.8303 17.9157 89.3217 20.6974C90.825 23.4792 91.5767 26.8527 91.5767 30.8182ZM83.782 30.8182C83.782 28.2495 83.3973 26.0833 82.6278 24.3196C81.8703 22.5559 80.799 21.2183 79.4141 20.3068C78.0291 19.3954 76.4074 18.9396 74.549 18.9396C72.6906 18.9396 71.0689 19.3954 69.6839 20.3068C68.299 21.2183 67.2218 22.5559 66.4524 24.3196C65.6948 26.0833 65.3161 28.2495 65.3161 30.8182C65.3161 33.3868 65.6948 35.553 66.4524 37.3168C67.2218 39.0805 68.299 40.4181 69.6839 41.3295C71.0689 42.241 72.6906 42.6967 74.549 42.6967C76.4074 42.6967 78.0291 42.241 79.4141 41.3295C80.799 40.4181 81.8703 39.0805 82.6278 37.3168C83.3973 35.553 83.782 33.3868 83.782 30.8182ZM119.822 29.5043L112.897 29.9304C112.778 29.3385 112.524 28.8059 112.133 28.3324C111.743 27.8471 111.228 27.4624 110.589 27.1783C109.961 26.8823 109.21 26.7344 108.334 26.7344C107.162 26.7344 106.173 26.983 105.368 27.4801C104.564 27.9654 104.161 28.6165 104.161 29.4332C104.161 30.0843 104.421 30.6347 104.942 31.0845C105.463 31.5343 106.357 31.8954 107.623 32.1676L112.559 33.1619C115.211 33.7064 117.188 34.5824 118.49 35.7898C119.792 36.9972 120.443 38.5833 120.443 40.5483C120.443 42.3357 119.916 43.9041 118.863 45.2536C117.821 46.603 116.389 47.6565 114.566 48.4141C112.755 49.1598 110.666 49.5327 108.298 49.5327C104.688 49.5327 101.811 48.781 99.6689 47.2777C97.5382 45.7625 96.2894 43.7029 95.9224 41.0987L103.362 40.7081C103.587 41.8089 104.131 42.6494 104.996 43.2294C105.86 43.7976 106.966 44.0817 108.316 44.0817C109.642 44.0817 110.707 43.8272 111.512 43.3182C112.329 42.7973 112.743 42.1286 112.755 41.3118C112.743 40.6252 112.453 40.063 111.885 39.625C111.317 39.1752 110.441 38.8319 109.257 38.5952L104.534 37.6541C101.871 37.1214 99.8878 36.1982 98.5858 34.8842C97.2955 33.5703 96.6504 31.8954 96.6504 29.8594C96.6504 28.1075 97.1239 26.5982 98.0708 25.3317C99.0297 24.0651 100.373 23.0885 102.101 22.402C103.841 21.7154 105.877 21.3722 108.209 21.3722C111.654 21.3722 114.365 22.1001 116.341 23.5561C118.33 25.0121 119.49 26.9948 119.822 29.5043ZM137.528 49.5327C134.77 49.5327 132.385 48.9467 130.373 47.7749C128.372 46.5911 126.828 44.9458 125.739 42.8388C124.65 40.7199 124.105 38.2637 124.105 35.4702C124.105 32.6529 124.65 30.1908 125.739 28.0838C126.828 25.965 128.372 24.3196 130.373 23.1477C132.385 21.964 134.77 21.3722 137.528 21.3722C140.286 21.3722 142.666 21.964 144.666 23.1477C146.679 24.3196 148.229 25.965 149.318 28.0838C150.407 30.1908 150.952 32.6529 150.952 35.4702C150.952 38.2637 150.407 40.7199 149.318 42.8388C148.229 44.9458 146.679 46.5911 144.666 47.7749C142.666 48.9467 140.286 49.5327 137.528 49.5327ZM137.564 43.6733C138.819 43.6733 139.866 43.3182 140.707 42.608C141.547 41.8859 142.18 40.9034 142.607 39.6605C143.045 38.4176 143.263 37.0031 143.263 35.4169C143.263 33.8307 143.045 32.4162 142.607 31.1733C142.18 29.9304 141.547 28.9479 140.707 28.2259C139.866 27.5038 138.819 27.1428 137.564 27.1428C136.297 27.1428 135.232 27.5038 134.368 28.2259C133.516 28.9479 132.871 29.9304 132.433 31.1733C132.006 32.4162 131.793 33.8307 131.793 35.4169C131.793 37.0031 132.006 38.4176 132.433 39.6605C132.871 40.9034 133.516 41.8859 134.368 42.608C135.232 43.3182 136.297 43.6733 137.564 43.6733ZM163.434 33.233V49H155.87V21.7273H163.079V26.5391H163.398C164.002 24.9529 165.014 23.6982 166.435 22.7749C167.855 21.8397 169.577 21.3722 171.602 21.3722C173.496 21.3722 175.147 21.7865 176.555 22.6151C177.964 23.4437 179.059 24.6274 179.84 26.1662C180.621 27.6932 181.012 29.5161 181.012 31.6349V49H173.448V32.9844C173.46 31.3153 173.034 30.0133 172.17 29.0781C171.306 28.1312 170.116 27.6577 168.601 27.6577C167.583 27.6577 166.683 27.8767 165.902 28.3146C165.133 28.7526 164.529 29.3918 164.091 30.2322C163.665 31.0608 163.446 32.0611 163.434 33.233ZM200.006 49H187.116V12.6364H200.113C203.77 12.6364 206.919 13.3643 209.559 14.8203C212.198 16.2644 214.229 18.3419 215.649 21.0526C217.081 23.7633 217.797 27.0066 217.797 30.7827C217.797 34.5705 217.081 37.8258 215.649 40.5483C214.229 43.2708 212.187 45.3601 209.523 46.8161C206.872 48.272 203.699 49 200.006 49ZM194.804 42.4126H199.687C201.959 42.4126 203.871 42.0102 205.422 41.2053C206.984 40.3885 208.156 39.1278 208.937 37.4233C209.73 35.7069 210.127 33.4934 210.127 30.7827C210.127 28.0956 209.73 25.8999 208.937 24.1953C208.156 22.4908 206.99 21.236 205.439 20.4311C203.889 19.6262 201.977 19.2237 199.704 19.2237H194.804V42.4126ZM235.673 49.5327C232.915 49.5327 230.53 48.9467 228.517 47.7749C226.517 46.5911 224.972 44.9458 223.883 42.8388C222.794 40.7199 222.25 38.2637 222.25 35.4702C222.25 32.6529 222.794 30.1908 223.883 28.0838C224.972 25.965 226.517 24.3196 228.517 23.1477C230.53 21.964 232.915 21.3722 235.673 21.3722C238.431 21.3722 240.81 21.964 242.811 23.1477C244.823 24.3196 246.374 25.965 247.463 28.0838C248.552 30.1908 249.096 32.6529 249.096 35.4702C249.096 38.2637 248.552 40.7199 247.463 42.8388C246.374 44.9458 244.823 46.5911 242.811 47.7749C240.81 48.9467 238.431 49.5327 235.673 49.5327ZM235.708 43.6733C236.963 43.6733 238.011 43.3182 238.851 42.608C239.692 41.8859 240.325 40.9034 240.751 39.6605C241.189 38.4176 241.408 37.0031 241.408 35.4169C241.408 33.8307 241.189 32.4162 240.751 31.1733C240.325 29.9304 239.692 28.9479 238.851 28.2259C238.011 27.5038 236.963 27.1428 235.708 27.1428C234.442 27.1428 233.377 27.5038 232.512 28.2259C231.66 28.9479 231.015 29.9304 230.577 31.1733C230.151 32.4162 229.938 33.8307 229.938 35.4169C229.938 37.0031 230.151 38.4176 230.577 39.6605C231.015 40.9034 231.66 41.8859 232.512 42.608C233.377 43.3182 234.442 43.6733 235.708 43.6733ZM260.353 12.6364V16.4716C260.353 17.5606 260.14 18.6733 259.714 19.8097C259.3 20.9342 258.743 21.9995 258.045 23.0057C257.347 24 256.583 24.8464 255.755 25.5447L252.417 23.5739C253.008 22.6387 253.529 21.603 253.979 20.4666C254.441 19.3303 254.672 18.0104 254.672 16.5071V12.6364H260.353ZM272.245 41.152L272.263 32.0788H273.364L282.1 21.7273H290.782L279.046 35.4347H277.252L272.245 41.152ZM265.392 49V12.6364H272.955V49H265.392ZM282.437 49L274.411 37.1214L279.454 31.777L291.297 49H282.437ZM305.692 49.5327C302.934 49.5327 300.549 48.9467 298.537 47.7749C296.536 46.5911 294.992 44.9458 293.903 42.8388C292.814 40.7199 292.269 38.2637 292.269 35.4702C292.269 32.6529 292.814 30.1908 293.903 28.0838C294.992 25.965 296.536 24.3196 298.537 23.1477C300.549 21.964 302.934 21.3722 305.692 21.3722C308.451 21.3722 310.83 21.964 312.83 23.1477C314.843 24.3196 316.393 25.965 317.482 28.0838C318.571 30.1908 319.116 32.6529 319.116 35.4702C319.116 38.2637 318.571 40.7199 317.482 42.8388C316.393 44.9458 314.843 46.5911 312.83 47.7749C310.83 48.9467 308.451 49.5327 305.692 49.5327ZM305.728 43.6733C306.983 43.6733 308.03 43.3182 308.871 42.608C309.711 41.8859 310.344 40.9034 310.771 39.6605C311.209 38.4176 311.428 37.0031 311.428 35.4169C311.428 33.8307 311.209 32.4162 310.771 31.1733C310.344 29.9304 309.711 28.9479 308.871 28.2259C308.03 27.5038 306.983 27.1428 305.728 27.1428C304.461 27.1428 303.396 27.5038 302.532 28.2259C301.68 28.9479 301.035 29.9304 300.597 31.1733C300.17 32.4162 299.957 33.8307 299.957 35.4169C299.957 37.0031 300.17 38.4176 300.597 39.6605C301.035 40.9034 301.68 41.8859 302.532 42.608C303.396 43.3182 304.461 43.6733 305.728 43.6733ZM331.598 33.233V49H324.034V21.7273H331.243V26.5391H331.562C332.166 24.9529 333.178 23.6982 334.599 22.7749C336.019 21.8397 337.741 21.3722 339.766 21.3722C341.66 21.3722 343.311 21.7865 344.719 22.6151C346.128 23.4437 347.223 24.6274 348.004 26.1662C348.786 27.6932 349.176 29.5161 349.176 31.6349V49H341.612V32.9844C341.624 31.3153 341.198 30.0133 340.334 29.0781C339.47 28.1312 338.28 27.6577 336.765 27.6577C335.747 27.6577 334.847 27.8767 334.066 28.3146C333.297 28.7526 332.693 29.3918 332.255 30.2322C331.829 31.0608 331.61 32.0611 331.598 33.233Z" fill="#007BFF"/>
<path d="M2 14.5L13.025 3.475C13.4901 3.00708 14.0433 2.63585 14.6526 2.38269C15.2619 2.12954 15.9152 1.99948 16.575 2H37.425C38.0848 1.99948 38.7381 2.12954 39.3474 2.38269C39.9567 2.63585 40.5099 3.00708 40.975 3.475L52 14.5" stroke="#007BFF" stroke-width="4" stroke-linecap="round" stroke-linejoin="round"/>
<path d="M7 27V47C7 48.3261 7.52678 49.5979 8.46447 50.5355C9.40215 51.4732 10.6739 52 12 52H42C43.3261 52 44.5979 51.4732 45.5355 50.5355C46.4732 49.5979 47 48.3261 47 47V27" stroke="#007BFF" stroke-width="4" stroke-linecap="round" stroke-linejoin="round"/>
<path d="M34.5 52V42C34.5 40.6739 33.9732 39.4021 33.0355 38.4645C32.0979 37.5268 30.8261 37 29.5 37H24.5C23.1739 37 21.9021 37.5268 20.9645 38.4645C20.0268 39.4021 19.5 40.6739 19.5 42V52" stroke="#007BFF" stroke-width="4" stroke-linecap="round" stroke-linejoin="round"/>
<path d="M2 14.5H52" stroke="#007BFF" stroke-width="4" stroke-linecap="round" stroke-linejoin="round"/>
<path d="M52 14.5V22C52 23.3261 51.4732 24.5979 50.5355 25.5355C49.5979 26.4732 48.3261 27 47 27C45.5393 26.9196 44.1443 26.3669 43.025 25.425C42.7267 25.2094 42.368 25.0934 42 25.0934C41.632 25.0934 41.2733 25.2094 40.975 25.425C39.8557 26.3669 38.4607 26.9196 37 27C35.5393 26.9196 34.1443 26.3669 33.025 25.425C32.7267 25.2094 32.368 25.0934 32 25.0934C31.632 25.0934 31.2733 25.2094 30.975 25.425C29.8557 26.3669 28.4607 26.9196 27 27C25.5393 26.9196 24.1443 26.3669 23.025 25.425C22.7267 25.2094 22.368 25.0934 22 25.0934C21.632 25.0934 21.2733 25.2094 20.975 25.425C19.8557 26.3669 18.4607 26.9196 17 27C15.5393 26.9196 14.1443 26.3669 13.025 25.425C12.7267 25.2094 12.368 25.0934 12 25.0934C11.632 25.0934 11.2733 25.2094 10.975 25.425C9.85568 26.3669 8.46066 26.9196 7 27C5.67392 27 4.40215 26.4732 3.46447 25.5355C2.52678 24.5979 2 23.3261 2 22V14.5" stroke="#007BFF" stroke-width="4" stroke-linecap="round" stroke-linejoin="round"/>
</svg>
