<svg width="54" height="54" viewBox="0 0 54 54" fill="none" xmlns="http://www.w3.org/2000/svg">
<path d="M2 14.5L13.025 3.475C13.4901 3.00708 14.0433 2.63585 14.6526 2.38269C15.2619 2.12954 15.9152 1.99948 16.575 2H37.425C38.0848 1.99948 38.7381 2.12954 39.3474 2.38269C39.9567 2.63585 40.5099 3.00708 40.975 3.475L52 14.5" stroke="#007BFF" stroke-width="4" stroke-linecap="round" stroke-linejoin="round"/>
<path d="M7 27V47C7 48.3261 7.52678 49.5979 8.46447 50.5355C9.40215 51.4732 10.6739 52 12 52H42C43.3261 52 44.5979 51.4732 45.5355 50.5355C46.4732 49.5979 47 48.3261 47 47V27" stroke="#007BFF" stroke-width="4" stroke-linecap="round" stroke-linejoin="round"/>
<path d="M34.5 52V42C34.5 40.6739 33.9732 39.4021 33.0355 38.4645C32.0979 37.5268 30.8261 37 29.5 37H24.5C23.1739 37 21.9021 37.5268 20.9645 38.4645C20.0268 39.4021 19.5 40.6739 19.5 42V52" stroke="#007BFF" stroke-width="4" stroke-linecap="round" stroke-linejoin="round"/>
<path d="M2 14.5H52" stroke="#007BFF" stroke-width="4" stroke-linecap="round" stroke-linejoin="round"/>
<path d="M52 14.5V22C52 23.3261 51.4732 24.5979 50.5355 25.5355C49.5979 26.4732 48.3261 27 47 27C45.5393 26.9196 44.1443 26.3669 43.025 25.425C42.7267 25.2094 42.368 25.0934 42 25.0934C41.632 25.0934 41.2733 25.2094 40.975 25.425C39.8557 26.3669 38.4607 26.9196 37 27C35.5393 26.9196 34.1443 26.3669 33.025 25.425C32.7267 25.2094 32.368 25.0934 32 25.0934C31.632 25.0934 31.2733 25.2094 30.975 25.425C29.8557 26.3669 28.4607 26.9196 27 27C25.5393 26.9196 24.1443 26.3669 23.025 25.425C22.7267 25.2094 22.368 25.0934 22 25.0934C21.632 25.0934 21.2733 25.2094 20.975 25.425C19.8557 26.3669 18.4607 26.9196 17 27C15.5393 26.9196 14.1443 26.3669 13.025 25.425C12.7267 25.2094 12.368 25.0934 12 25.0934C11.632 25.0934 11.2733 25.2094 10.975 25.425C9.85568 26.3669 8.46066 26.9196 7 27C5.67392 27 4.40215 26.4732 3.46447 25.5355C2.52678 24.5979 2 23.3261 2 22V14.5" stroke="#007BFF" stroke-width="4" stroke-linecap="round" stroke-linejoin="round"/>
</svg>
